<?xml version="1.0" encoding="UTF-8" standalone="no"?>
<svg
   id="linkedin-logo"
   className="contact-link-icon"
   viewBox="0 0 223.57001 223.56671"
   version="1.1"
   xml:space="preserve"
   style="clip-rule:evenodd;fill-rule:evenodd;stroke-linejoin:round;stroke-miterlimit:2"
   xmlns="http://www.w3.org/2000/svg"
   xmlnsSvg="http://www.w3.org/2000/svg"><defs
   id="defs834">
     
    </defs>
    <path
   d="m 190.496,190.49442 h -33.127 v -51.878 c 0,-12.371 -0.221,-28.296 -17.229,-28.296 -17.254,0 -19.894,13.478 -19.894,27.395 v 52.775 H 87.12 V 83.808416 h 31.801 v 14.579 h 0.446 c 6.475,-11.071 18.559,-17.708 31.377,-17.232 33.575,0 39.766,22.084004 39.766,50.815004 z M 49.742,69.225416 h -0.004 c -10.546,0 -19.224,-8.677 -19.224,-19.223 0,-10.546 8.678,-19.224 19.224,-19.224 10.545,0 19.222,8.676 19.224,19.22 v 0.004 c 0,10.544 -8.676,19.222 -19.22,19.223 M 66.305,190.49442 H 33.144 V 83.808416 H 66.305 Z M 207.01,0.01541623 H 16.497 C 7.554,-0.08558377 0.109,7.1864162 0,16.129416 V 207.43342 c 0.105,8.948 7.549,16.228 16.497,16.132 H 207.01 c 8.97,0.113 16.44,-7.166 16.56,-16.132 V 16.116416 C 223.45,7.1544162 215.97,-0.11658377 207.01,0.00141623"
   
   id="path826" />
</svg>
